<?xml version="1.0" encoding="utf-8"?>
<!-- Generator: Adobe Illustrator 16.0.0, SVG Export Plug-In . SVG Version: 6.00 Build 0)  -->
<!DOCTYPE svg PUBLIC "-//W3C//DTD SVG 1.1//EN" "http://www.w3.org/Graphics/SVG/1.1/DTD/svg11.dtd">
<svg version="1.1" id="图层_1" xmlns="http://www.w3.org/2000/svg" xmlns:xlink="http://www.w3.org/1999/xlink" x="0px" y="0px"
	 width="998px" height="260px" viewBox="0 0 998 260" enable-background="new 0 0 998 260" xml:space="preserve">
<g enable-background="new    ">
	<path fill="#4A9881" d="M142.676,220.112H249.61V57.271h-93.018V37.739H364.6v19.531h-93.506v162.842h107.178v19.043H142.676
		V220.112z"/>
	<path fill="#4A9881" d="M610.205,137.593c22.949-34.016,41.096-74.299,54.443-120.85l20.02,5.859
		c-6.268,19.207-12.939,37.231-20.02,54.077v179.321h-19.043V116.475c-8.221,15.381-16.928,29.419-26.123,42.114
		C617.041,152.405,613.947,145.405,610.205,137.593z M678.076,115.132c21.646-29.621,37.598-62.662,47.852-99.121l20.02,3.662
		c-3.826,12.533-8.139,24.658-12.939,36.377h120.361v17.09h-88.867v42.725h79.102v17.09h-79.102v44.434h82.275v17.09h-82.275v61.523
		h-19.043V73.14h-19.896c-9.197,19.857-19.898,38.494-32.105,55.908C688.898,124.653,683.771,120.015,678.076,115.132z"/>
</g>
</svg>
