<?xml version="1.0" encoding="utf-8"?>
<!-- Generator: Adobe Illustrator 16.0.0, SVG Export Plug-In . SVG Version: 6.00 Build 0)  -->
<!DOCTYPE svg PUBLIC "-//W3C//DTD SVG 1.1//EN" "http://www.w3.org/Graphics/SVG/1.1/DTD/svg11.dtd">
<svg version="1.1" id="图层_1" xmlns="http://www.w3.org/2000/svg" xmlns:xlink="http://www.w3.org/1999/xlink" x="0px" y="0px"
	 width="998px" height="260px" viewBox="0 0 998 260" enable-background="new 0 0 998 260" xml:space="preserve">
<g enable-background="new    ">
	<path fill="#4A9881" d="M96.417,35.443c7.813,0,16.266-0.32,25.391-0.977v16.602c-7.172-0.641-13.672-0.977-19.531-0.977v129.883
		c7.156-1.953,13.672-3.57,19.531-4.883c-1.313,8.469-1.633,14.008-0.977,16.602c-7.813,1.313-14.008,2.609-18.555,3.906v22.461
		c0,9.766,0.32,20.828,0.977,33.203H82.745c1.297-12.375,1.953-23.438,1.953-33.203v-18.555c-7.172,1.313-16.113,3.586-26.855,6.836
		c-10.742,3.266-22.309,7.172-34.668,11.719c-0.656-4.547-2.93-12.039-6.836-22.461c3.906,0,10.742-0.977,20.508-2.93V50.092
		c-6.516,0-12.695,0.656-18.555,1.953V34.467c7.813,0.656,15.945,0.977,24.414,0.977H96.417z M84.698,84.271v-34.18H54.424v34.18
		H84.698z M84.698,137.982V99.896H54.424v38.086H84.698z M84.698,153.607H54.424v36.133c7.156-1.297,17.242-3.25,30.273-5.859
		V153.607z M207.256,49.604c-2.289,4.883-6.348,12.543-12.207,22.949c13.672,0,26.367-0.32,38.086-0.977v17.578
		c-11.719-1.297-21.82-1.953-30.273-1.953h-19.531c-0.656,24.094-1.313,41.016-1.953,50.781h28.32c7.813,0,17.242-0.32,28.32-0.977
		v17.578c-11.078-0.641-20.508-0.977-28.32-0.977h-25.391c3.906,17.578,11.719,33.203,23.438,46.875s24.734,22.141,39.063,25.391
		c-4.563,3.906-7.98,7.645-10.254,11.23c-2.289,3.57-3.754,7.645-4.395,12.207c-13.672-9.766-25.07-20.508-34.18-32.227
		c-9.125-11.719-16.602-26.367-22.461-43.945c-4.563,14.984-10.422,28.656-17.578,41.016c-7.172,12.359-16.281,24.734-27.344,37.109
		c-1.953-2.609-4.883-5.539-8.789-8.789c-3.906-3.266-6.836-4.883-8.789-4.883c9.109-5.859,17.73-15.137,25.879-27.832
		c8.133-12.695,13.504-23.102,16.113-31.25c2.594-8.133,4.547-16.434,5.859-24.902h-11.719c-10.422,0-21.484,0.336-33.203,0.977
		v-17.578c11.719,0.656,22.781,0.977,33.203,0.977h13.672c1.297-18.875,1.953-35.797,1.953-50.781h-9.766
		c-9.125,0-19.867,0.656-32.227,1.953V71.576c12.359,0.656,23.102,0.977,32.227,0.977h24.414
		c7.813-18.219,13.672-35.477,17.578-51.758c3.906,2.609,11.063,6.195,21.484,10.742C213.268,38.709,209.53,44.721,207.256,49.604z
		 M164.776,58.881c-7.813,3.266-13.031,6.516-15.625,9.766c-3.266-7.813-10.102-20.172-20.508-37.109
		c1.953-0.641,6.5-3.57,13.672-8.789C154.034,40.982,161.51,53.021,164.776,58.881z"/>
	<path fill="#4A9881" d="M315.655,210.248c-9.445,9.125-19.043,17.898-28.809,26.367c-5.859-5.859-11.398-10.102-16.602-12.695
		c18.219-11.063,35.156-26.688,50.781-46.875c5.859,4.563,12.695,9.125,20.508,13.672
		C333.721,194.623,325.084,201.139,315.655,210.248z M479.229,42.279c-19.531,0.656-36.301,1.801-50.293,3.418
		c-14.008,1.633-31.098,3.418-51.27,5.371c3.25,3.266,7.813,6.195,13.672,8.789c-8.469,5.219-16.77,11.23-24.902,18.066
		c-8.148,6.836-16.113,13.184-23.926,19.043h48.828c16.266-11.063,29.938-21.148,41.016-30.273
		c6.5,5.219,14.313,9.766,23.438,13.672c-9.125,3.906-17.914,8.148-26.367,12.695c-8.469,4.563-22.309,12.863-41.504,24.902
		c-19.211,12.055-35.645,21.973-49.316,29.785c38.406-1.953,74.219-3.57,107.422-4.883c-3.266-3.25-11.719-10.086-25.391-20.508
		c6.5-2.594,12.039-5.859,16.602-9.766c7.813,5.859,16.754,13.184,26.855,21.973c10.086,8.789,19.684,17.426,28.809,25.879
		c-7.813,4.563-14.008,8.789-18.555,12.695c-5.219-6.5-10.102-11.719-14.648-15.625c-17.578,0.656-38.422,1.633-62.5,2.93v58.594
		c0,12.359-3.098,19.684-9.277,21.973c-6.195,2.273-17.426,4.715-33.691,7.324c-1.313-7.813-4.242-15.305-8.789-22.461
		c14.969,0,24.246-0.488,27.832-1.465c3.57-0.977,5.371-4.715,5.371-11.23v-52.734c-39.719,0.656-66.742,2.289-81.055,4.883
		c-1.953-6.5-4.242-13.336-6.836-20.508c14.313-1.297,27.008-4.547,38.086-9.766c11.063-5.203,24.414-13.016,40.039-23.438
		c-14.984,0-26.215,0.336-33.691,0.977c-7.492,0.656-15.793,1.633-24.902,2.93c-1.953-7.156-3.906-13.992-5.859-20.508
		c11.063,0,22.125-4.395,33.203-13.184c11.063-8.789,19.531-18.387,25.391-28.809c-36.469,1.313-60.227,2.609-71.289,3.906
		c-1.953-6.5-4.242-12.359-6.836-17.578c36.453,0,69-1.297,97.656-3.906c28.641-2.594,55.328-7.156,80.078-13.672
		C466.534,28.287,472.057,35.123,479.229,42.279z M463.604,196.088c10.406,7.492,19.195,14.816,26.367,21.973
		c-5.219,4.563-10.422,9.766-15.625,15.625c-8.469-9.109-17.258-17.242-26.367-24.414c-9.125-7.156-17.578-13.336-25.391-18.555
		c5.859-4.547,10.406-9.43,13.672-14.648C444.073,181.928,453.182,188.611,463.604,196.088z"/>
	<path fill="#4A9881" d="M629.619,51.068c-5.859,1.953-18.234,4.883-37.109,8.789v37.109h50.781c0-17.578-0.336-41.992-0.977-73.242
		c7.156,1.313,14.313,1.953,21.484,1.953c-1.313,9.766-1.953,20.844-1.953,33.203v38.086h43.945c9.766,0,21.148-0.32,34.18-0.977
		v17.578c-13.031-0.641-24.094-0.977-33.203-0.977h-43.945c1.953,31.25,6.18,53.711,12.695,67.383
		c13.672-13.016,25.391-32.227,35.156-57.617c5.203,4.563,12.039,8.789,20.508,12.695c-5.219,5.859-12.055,15.473-20.508,28.809
		c-8.469,13.352-17.258,24.582-26.367,33.691c5.203,7.813,10.742,14.328,16.602,19.531c5.859,5.219,10.574,8.301,14.16,9.277
		c3.57,0.977,6.18-0.977,7.813-5.859c1.617-4.883,2.762-11.871,3.418-20.996c6.5,4.563,13.336,8.469,20.508,11.719
		c-5.219,18.219-10.742,29.617-16.602,34.18c-5.859,4.547-14.328,3.906-25.391-1.953c-11.078-5.859-22.461-16.938-34.18-33.203
		c-22.141,15.625-39.719,26.688-52.734,33.203c-3.906-7.172-8.789-13.031-14.648-17.578c19.531-6.5,38.727-17.242,57.617-32.227
		c-9.125-18.219-14.648-45.242-16.602-81.055H592.51v38.086c14.969-3.25,26.367-6.5,34.18-9.766
		c0.641,6.516,1.297,12.695,1.953,18.555c-8.469,1.953-20.508,4.883-36.133,8.789v49.805c0.641,12.359-3.266,20.34-11.719,23.926
		c-8.469,3.57-18.234,6.348-29.297,8.301c-0.656-7.172-3.906-14.648-9.766-22.461c13.016,0,21.637-0.824,25.879-2.441
		c4.227-1.617,6.348-5.371,6.348-11.23v-41.016c-24.75,6.516-41.016,11.078-48.828,13.672c-0.656-9.109-2.609-16.602-5.859-22.461
		c11.719-1.297,29.938-4.547,54.688-9.766v-41.992c-25.391,0-42.969,0.336-52.734,0.977V95.99
		c10.406,0.656,27.984,0.977,52.734,0.977V64.74l-41.016,8.789c-1.953-7.156-4.563-13.336-7.813-18.555
		c9.766,0,24.902-2.273,45.41-6.836c20.508-4.547,35.965-9.766,46.387-15.625C623.424,41.639,627.666,47.818,629.619,51.068z
		 M725.322,70.6c-5.219,3.906-10.422,8.469-15.625,13.672c-10.422-14.313-21.484-26.031-33.203-35.156
		c5.203-4.547,9.43-9.109,12.695-13.672C706.111,51.068,718.15,62.787,725.322,70.6z"/>
	<path fill="#4A9881" d="M819.072,71.576v132.813c0,18.234,0.32,33.844,0.977,46.875h-21.484
		c0.641-13.672,0.977-29.297,0.977-46.875v-95.703c-2.609,5.859-8.789,16.281-18.555,31.25c-5.219-5.203-10.742-9.109-16.602-11.719
		c8.453-9.109,18.707-24.902,30.762-47.363c12.039-22.461,19.684-42.801,22.949-61.035c10.406,3.906,18.219,6.516,23.438,7.813
		C836.971,34.146,829.479,48.795,819.072,71.576z M868.877,106.732v143.555h-20.508c0.641-8.469,0.977-22.141,0.977-41.016v-97.656
		c0-14.969-0.336-26.367-0.977-34.18h21.484C869.197,82.654,868.877,92.42,868.877,106.732z M886.943,44.232
		c4.227,5.859,8.621,12.055,13.184,18.555c-6.516,3.906-12.375,8.148-17.578,12.695c-3.906-8.453-12.695-21.148-26.367-38.086
		c5.203-3.906,10.086-8.133,14.648-12.695C877.33,31.873,882.701,38.373,886.943,44.232z M982.158,52.045
		c-0.656,12.375-0.977,25.727-0.977,40.039v132.813c0.641,10.406-3.098,16.922-11.23,19.531c-8.148,2.594-17.746,4.547-28.809,5.859
		c-1.953-7.813-4.883-15.625-8.789-23.438c11.719,0.641,19.684,0.488,23.926-0.488c4.227-0.977,6.348-4.395,6.348-10.254V69.623
		h-17.578c-11.078,0-20.844,0.656-29.297,1.953V51.068c9.109,0.656,18.875,0.977,29.297,0.977H982.158z"/>
</g>
</svg>
